<svg xmlns="http://www.w3.org/2000/svg" viewBox="0 0 512 512" style="width:128px;height:128px"><path d="M256 265.308c73.252 0 132.644-59.391 132.644-132.654C388.644 59.412 329.252 0 256 0c-73.262 0-132.643 59.412-132.643 132.654 0 73.263 59.381 132.654 132.643 132.654zm169.874 127.796c-5.922-35.474-36-84.509-57.552-107.465-5.829-6.212-15.948-3.628-19.504-1.427-27.04 16.672-58.782 26.399-92.819 26.399-34.036 0-65.778-9.727-92.818-26.399-3.555-2.201-13.675-4.785-19.505 1.427-21.55 22.956-51.628 71.991-57.551 107.465C71.573 480.444 164.877 512 256 512s184.427-31.556 169.874-118.896z" fill="#4b4b4b"/></svg>